<svg xmlns="http://www.w3.org/2000/svg" version="1.1" xmlns:xlink="http://www.w3.org/1999/xlink" xmlns:svgjs="http://svgjs.dev/svgjs" width="2000" height="1999" viewBox="0 0 2000 1999"><g transform="matrix(1,0,0,1,-0.431486880466764,-0.4312711370263287)"><svg viewBox="0 0 343 343" data-background-color="#ffffff" preserveAspectRatio="xMidYMid meet" height="1999" width="2000" xmlns="http://www.w3.org/2000/svg" xmlns:xlink="http://www.w3.org/1999/xlink"><g id="tight-bounds" transform="matrix(1,0,0,1,0.0740000000000407,0.07400000000001228)"><svg viewBox="0 0 342.85155851775386 342.85155851775386" height="342.85155851775386" width="342.85155851775386"><g><svg></svg></g><g><svg viewBox="0 0 342.85155851775386 342.85155851775386" height="342.85155851775386" width="342.85155851775386"><g><path d="M0 171.426c0-94.676 76.75-171.426 171.426-171.426 94.676 0 171.426 76.75 171.426 171.426 0 94.676-76.75 171.426-171.426 171.426-94.676 0-171.426-76.75-171.426-171.426zM171.426 327.869c86.401 0 156.443-70.042 156.443-156.443 0-86.401-70.042-156.443-156.443-156.443-86.401 0-156.443 70.042-156.443 156.443 0 86.401 70.042 156.443 156.443 156.443z" data-fill-palette-color="tertiary" fill="#ffffff" stroke="transparent"></path><ellipse rx="164.56874808852186" ry="164.56874808852186" cx="171.42577925887693" cy="171.42577925887693" fill="#ffffff" stroke="transparent" stroke-width="0" fill-opacity="1" data-fill-palette-color="tertiary"></ellipse></g><g transform="matrix(1,0,0,1,64.84655864529837,88.35408159986878)"><svg viewBox="0 0 213.1584412271571 166.1433953180163" height="166.1433953180163" width="213.1584412271571"><g><svg viewBox="0 0 213.1584412271571 166.1433953180163" height="166.1433953180163" width="213.1584412271571"><g><svg viewBox="0 0 213.1584412271571 166.1433953180163" height="166.1433953180163" width="213.1584412271571"><g><svg viewBox="0 0 213.1584412271571 166.1433953180163" height="166.1433953180163" width="213.1584412271571"><g id="textblocktransform"><svg viewBox="0 0 213.1584412271571 166.1433953180163" height="166.1433953180163" width="213.1584412271571" id="textblock"><g><svg viewBox="0 0 213.1584412271571 166.1433953180163" height="166.1433953180163" width="213.1584412271571"><g transform="matrix(1,0,0,1,0,0)"><svg width="213.1584412271571" viewBox="2.450000047683716 -36 60.29999923706055 47" height="166.1433953180163" data-palette-color="#ffffff"><path d="M14.65 0.6L14.65 0.6Q11.15 0.6 8.4-1.1 5.65-2.8 4.05-5.75 2.45-8.7 2.45-12.45L2.45-12.45Q2.45-16.2 4.05-19.13 5.65-22.05 8.4-23.73 11.15-25.4 14.65-25.4L14.65-25.4Q17.45-25.4 19.55-24.35 21.65-23.3 22.95-21.4L22.95-21.4 22.95-36 29.35-36 29.35 0 23.65 0 22.95-3.55Q21.75-1.9 19.78-0.65 17.8 0.6 14.65 0.6ZM16-5L16-5Q19.1-5 21.08-7.08 23.05-9.15 23.05-12.4L23.05-12.4Q23.05-15.65 21.08-17.73 19.1-19.8 16-19.8L16-19.8Q12.95-19.8 10.95-17.75 8.95-15.7 8.95-12.45L8.95-12.45Q8.95-9.2 10.95-7.1 12.95-5 16-5ZM42.25 11L35.85 11 35.85-24.8 41.55-24.8 42.25-21.25Q43.45-22.9 45.42-24.15 47.4-25.4 50.55-25.4L50.55-25.4Q54.05-25.4 56.8-23.7 59.55-22 61.15-19.05 62.75-16.1 62.75-12.35L62.75-12.35Q62.75-8.6 61.15-5.68 59.55-2.75 56.8-1.07 54.05 0.6 50.55 0.6L50.55 0.6Q47.75 0.6 45.65-0.45 43.55-1.5 42.25-3.4L42.25-3.4 42.25 11ZM49.2-5L49.2-5Q52.25-5 54.25-7.05 56.25-9.1 56.25-12.35L56.25-12.35Q56.25-15.6 54.25-17.7 52.25-19.8 49.2-19.8L49.2-19.8Q46.1-19.8 44.12-17.73 42.15-15.65 42.15-12.4L42.15-12.4Q42.15-9.15 44.12-7.08 46.1-5 49.2-5Z" opacity="1" transform="matrix(1,0,0,1,0,0)" fill="#000000" class="wordmark-text-0" data-fill-palette-color="quaternary" id="text-0"></path></svg></g></svg></g></svg></g></svg></g><g></g></svg></g></svg></g></svg></g></svg></g><defs></defs></svg><rect width="342.85155851775386" height="342.85155851775386" fill="none" stroke="none" visibility="hidden"></rect></g></svg></g></svg>