<?xml version="1.0" encoding="UTF-8" standalone="no" ?>
<!DOCTYPE svg PUBLIC "-//W3C//DTD SVG 1.1//EN" "http://www.w3.org/Graphics/SVG/1.1/DTD/svg11.dtd">
<svg xmlns="http://www.w3.org/2000/svg" xmlns:xlink="http://www.w3.org/1999/xlink" version="1.1" width="500" height="500" viewBox="0 0 500 500" xml:space="preserve">
<desc>Created with Fabric.js 5.3.0</desc>
<defs>
</defs>
<g transform="matrix(1.1319525836 -0.6535331289 0.6480412521 1.122440374 250 247.7450998764)" id="KfkUPEHQK7ve5WXlOt8Po"  >
<path style="stroke: rgb(0,0,0); stroke-width: 0; stroke-dasharray: none; stroke-linecap: butt; stroke-dashoffset: 0; stroke-linejoin: miter; stroke-miterlimit: 4; fill: rgb(255,255,255); fill-rule: nonzero; opacity: 1;"  transform=" translate(0, 0)" d="M -276.79739 -276.79739 L 276.79739 -276.79739 L 276.79739 276.79739 L -276.79739 276.79739 z" stroke-linecap="round" />
</g>
<g transform="matrix(-0.347424327 1.0692621315 -1.8977481678 -0.6166157582 274.5624791386 247.7450998764)" id="JfoLgHPh6scuI7Op7T6yw"  >
<path style="stroke: rgb(0,0,0); stroke-width: 0; stroke-dasharray: none; stroke-linecap: butt; stroke-dashoffset: 0; stroke-linejoin: miter; stroke-miterlimit: 4; fill: rgb(35,43,43); fill-rule: nonzero; opacity: 1;"  transform=" translate(0, 0)" d="M -184.76066 -0.44603 C -184.76066 -0.44603 -184.00534 -6.282590000000001 -172.79391 -6.225980000000001 C -161.58248 -6.169370000000001 173.33608999999998 -6.225980000000001 173.33608999999998 -6.225980000000001 C 173.33608999999998 -6.225980000000001 184.71089999999998 -6.254970000000001 184.76238999999998 -0.012790000000000745 C 184.81387999999998 6.229399999999999 173.33608999999998 6.222299999999999 173.33608999999998 6.222299999999999 L -172.79391 6.222299999999999 C -172.79391 6.222299999999999 -184.93734 6.621109999999999 -184.76066 -0.44603000000000126" stroke-linecap="round" />
</g>
<g transform="matrix(-0.347424327 1.0692621315 -1.8977481677 -0.6166157582 232.4342189245 252.254903798)" id="dnGSQoRBodMTqt0cePg-a"  >
<path style="stroke: rgb(0,0,0); stroke-width: 0; stroke-dasharray: none; stroke-linecap: butt; stroke-dashoffset: 0; stroke-linejoin: miter; stroke-miterlimit: 4; fill: rgb(35,43,43); fill-rule: nonzero; opacity: 1;"  transform=" translate(0.0000033449, -0.0000063812)" d="M -184.76066 -0.44603 C -184.76066 -0.44603 -184.00534 -6.282590000000001 -172.79391 -6.225980000000001 C -161.58248 -6.169370000000001 173.33608999999998 -6.225980000000001 173.33608999999998 -6.225980000000001 C 173.33608999999998 -6.225980000000001 184.71089999999998 -6.254970000000001 184.76238999999998 -0.012790000000000745 C 184.81387999999998 6.229399999999999 173.33608999999998 6.222299999999999 173.33608999999998 6.222299999999999 L -172.79391 6.222299999999999 C -172.79391 6.222299999999999 -184.93734 6.621109999999999 -184.76066 -0.44603000000000126" stroke-linecap="round" />
</g>
<g transform="matrix(-1.1217762743 0 0 -1.9954105095 265.7658649103 240.8329029013)" id="CSIQuWQ_QDZmEOoXbhaMG"  >
<path style="stroke: rgb(0,0,0); stroke-width: 0; stroke-dasharray: none; stroke-linecap: butt; stroke-dashoffset: 0; stroke-linejoin: miter; stroke-miterlimit: 4; fill: rgb(35,43,43); fill-rule: nonzero; opacity: 1;"  transform=" translate(0, 0)" d="M -184.76066 -0.44603 C -184.76066 -0.44603 -184.00534 -6.282590000000001 -172.79391 -6.225980000000001 C -161.58248 -6.169370000000001 173.33608999999998 -6.225980000000001 173.33608999999998 -6.225980000000001 C 173.33608999999998 -6.225980000000001 184.71089999999998 -6.254970000000001 184.76238999999998 -0.012790000000000745 C 184.81387999999998 6.229399999999999 173.33608999999998 6.222299999999999 173.33608999999998 6.222299999999999 L -172.79391 6.222299999999999 C -172.79391 6.222299999999999 -184.93734 6.621109999999999 -184.76066 -0.44603000000000126" stroke-linecap="round" />
</g>
<g transform="matrix(0.3634700128 0.5190889743 -1.6345445981 1.1445204491 398.2513620724 150.2226718111)" id="-QOKKN_OqONLDiM8QgJ6u"  >
<path style="stroke: rgb(0,0,0); stroke-width: 0; stroke-dasharray: none; stroke-linecap: butt; stroke-dashoffset: 0; stroke-linejoin: miter; stroke-miterlimit: 4; fill: rgb(35,43,43); fill-rule: nonzero; opacity: 1;"  transform=" translate(0, 0)" d="M -184.76066 -0.44603 C -184.76066 -0.44603 -184.00534 -6.282590000000001 -172.79391 -6.225980000000001 C -161.58248 -6.169370000000001 173.33608999999998 -6.225980000000001 173.33608999999998 -6.225980000000001 C 173.33608999999998 -6.225980000000001 184.71089999999998 -6.254970000000001 184.76238999999998 -0.012790000000000745 C 184.81387999999998 6.229399999999999 173.33608999999998 6.222299999999999 173.33608999999998 6.222299999999999 L -172.79391 6.222299999999999 C -172.79391 6.222299999999999 -184.93734 6.621109999999999 -184.76066 -0.44603000000000126" stroke-linecap="round" />
</g>
<g transform="matrix(0.3849430986 0.4275226228 -1.4828789948 1.3351902442 104.771729883 363.9707277026)" id="TV7XH7wzJz_Hzq6yFXDWY"  >
<path style="stroke: rgb(0,0,0); stroke-width: 0; stroke-dasharray: none; stroke-linecap: butt; stroke-dashoffset: 0; stroke-linejoin: miter; stroke-miterlimit: 4; fill: rgb(35,43,43); fill-rule: nonzero; opacity: 1;"  transform=" translate(0, 0)" d="M -184.76066 -0.44603 C -184.76066 -0.44603 -184.00534 -6.282590000000001 -172.79391 -6.225980000000001 C -161.58248 -6.169370000000001 173.33608999999998 -6.225980000000001 173.33608999999998 -6.225980000000001 C 173.33608999999998 -6.225980000000001 184.71089999999998 -6.254970000000001 184.76238999999998 -0.012790000000000745 C 184.81387999999998 6.229399999999999 173.33608999999998 6.222299999999999 173.33608999999998 6.222299999999999 L -172.79391 6.222299999999999 C -172.79391 6.222299999999999 -184.93734 6.621109999999999 -184.76066 -0.44603000000000126" stroke-linecap="round" />
</g>
<g transform="matrix(-1.1200239602 0 0 -1.9954105095 233.2221904259 290.458620006)" id="Cbe7Qvf_TY2798E4Vc-KE"  >
<path style="stroke: rgb(0,0,0); stroke-width: 0; stroke-dasharray: none; stroke-linecap: butt; stroke-dashoffset: 0; stroke-linejoin: miter; stroke-miterlimit: 4; fill: rgb(35,43,43); fill-rule: nonzero; opacity: 1;"  transform=" translate(0, 0)" d="M -184.76066 -0.44603 C -184.76066 -0.44603 -184.00534 -6.282590000000001 -172.79391 -6.225980000000001 C -161.58248 -6.169370000000001 173.33608999999998 -6.225980000000001 173.33608999999998 -6.225980000000001 C 173.33608999999998 -6.225980000000001 184.71089999999998 -6.254970000000001 184.76238999999998 -0.012790000000000745 C 184.81387999999998 6.229399999999999 173.33608999999998 6.222299999999999 173.33608999999998 6.222299999999999 L -172.79391 6.222299999999999 C -172.79391 6.222299999999999 -184.93734 6.621109999999999 -184.76066 -0.44603000000000126" stroke-linecap="round" />
</g>
</svg>